<?xml version="1.0" standalone="no"?>
<!DOCTYPE svg PUBLIC "-//W3C//DTD SVG 20010904//EN"
 "http://www.w3.org/TR/2001/REC-SVG-20010904/DTD/svg10.dtd">
<svg version="1.0" xmlns="http://www.w3.org/2000/svg"
 width="500.000000pt" height="500.000000pt" viewBox="0 0 500.000000 500.000000"
 preserveAspectRatio="xMidYMid meet">
<metadata>
Created by potrace 1.16, written by Peter Selinger 2001-2019
</metadata>
<g transform="translate(0.000000,500.000000) scale(0.100000,-0.100000)"
fill="none" stroke="red" stroke-width="3">
<path d="M2625 3268 c-21 -25 -117 -206 -232 -436 l-196 -393 -30 3 c-17 2
-32 8 -34 14 -2 7 15 34 38 60 116 134 147 347 58 395 -57 30 -152 2 -229 -67
-86 -78 -160 -228 -160 -326 0 -45 -40 -91 -74 -86 -48 7 -20 109 86 316 37
74 68 135 68 138 0 12 -62 1 -108 -21 -71 -33 -136 -78 -203 -142 l-57 -54 45
86 c47 91 49 115 8 133 -36 16 -105 -24 -217 -128 l-92 -85 34 64 c19 35 52
82 73 106 20 24 37 46 37 49 0 3 -24 6 -54 6 -50 0 -57 -3 -86 -37 -24 -27
-250 -467 -250 -486 0 -2 23 0 52 3 58 8 56 5 131 135 54 93 201 255 231 255
18 0 17 -1 -59 -184 -45 -109 -50 -160 -16 -187 13 -10 26 -19 30 -19 4 0 14
20 23 44 49 132 269 379 305 342 4 -4 -5 -28 -20 -54 -56 -94 -81 -157 -85
-215 -4 -53 -2 -61 24 -88 39 -40 95 -40 151 0 l40 29 27 -26 c34 -34 101 -36
164 -3 39 20 44 20 65 6 12 -8 32 -15 44 -15 15 0 21 -5 17 -14 -4 -11 3 -13
38 -9 24 3 50 9 58 14 9 4 40 48 69 97 66 111 137 201 198 247 78 60 95 41 41
-46 -47 -76 -77 -158 -78 -207 0 -91 101 -135 180 -77 l33 24 29 -24 c16 -14
39 -25 50 -25 39 0 91 34 139 92 l49 59 0 -35 c0 -82 40 -120 122 -117 29 1
58 7 65 13 8 6 32 43 55 82 86 151 219 296 269 296 23 0 17 -18 -40 -114 -44
-76 -68 -158 -57 -201 18 -73 107 -98 178 -50 52 35 178 233 178 280 0 37 -32
9 -69 -62 -75 -144 -149 -219 -183 -185 -24 24 69 262 156 401 33 51 24 64
-33 49 -67 -19 -179 -88 -260 -162 l-45 -41 35 64 c19 35 51 83 72 107 l39 44
-60 0 c-55 0 -62 -3 -87 -32 -15 -17 -72 -122 -128 -232 -92 -183 -102 -198
-105 -166 -2 19 2 53 8 75 14 45 83 187 111 227 11 14 19 29 19 33 0 3 -26 5
-57 3 -54 -3 -59 -5 -88 -45 -16 -22 -50 -78 -75 -124 -55 -102 -144 -199
-182 -199 -54 0 -51 53 12 177 102 204 257 319 318 236 13 -17 25 -24 36 -20
29 11 18 45 -24 73 -56 37 -125 37 -208 -1 -127 -57 -242 -227 -250 -368 -4
-60 -7 -70 -34 -92 -34 -29 -41 -30 -58 -10 -10 13 -10 27 4 79 18 66 103 250
149 323 15 24 27 46 27 49 0 4 -20 4 -45 2 -57 -7 -172 -72 -254 -145 l-63
-56 52 104 c83 165 178 337 236 427 30 45 54 85 54 87 0 3 -24 5 -54 5 -52 0
-56 -2 -91 -42z m-405 -423 c21 -25 6 -125 -31 -205 l-32 -70 -24 22 c-19 18
-28 20 -50 12 -36 -12 -50 -52 -36 -104 12 -47 4 -58 -50 -67 -45 -7 -62 20
-53 84 8 59 69 197 111 252 64 81 134 114 165 76z"/>
</g>
</svg>
